<?xml version="1.0"?>
<!-- Generated by SVGo -->
<svg width="600" height="922"
     xmlns="http://www.w3.org/2000/svg"
     xmlns:xlink="http://www.w3.org/1999/xlink">
<rect x="0" y="0" width="600" height="922" style="fill:rgb(240,240,240)" />
<g style="font-size:15px;font-family:sans-serif">
<text x="110" y="25" style="text-anchor:middle;font-size:120%" >align-gurantee</text>
<rect x="60" y="50" width="100" height="240" style="fill:steelblue" />
<text x="170" y="60" >0</text>
<text x="220" y="60" >Ag.sl []int16 (size 24, align 8)</text>
<text x="50" y="290" style="text-anchor:end" >23</text>
<rect x="60" y="298" width="100" height="80" style="fill:steelblue" />
<text x="170" y="308" >24</text>
<text x="220" y="308" >Ag.ptr *int64 (size 8, align 8)</text>
<text x="50" y="378" style="text-anchor:end" >31</text>
<rect x="60" y="386" width="100" height="160" style="fill:steelblue" />
<text x="170" y="396" >32</text>
<text x="220" y="396" >Ag.st.str string (size 16, align 8)</text>
<text x="50" y="546" style="text-anchor:end" >47</text>
<rect x="60" y="554" width="100" height="80" style="fill:steelblue" />
<text x="170" y="564" >48</text>
<text x="220" y="564" >Ag.m map[string]int16 (size 8, align 8)</text>
<text x="50" y="634" style="text-anchor:end" >55</text>
<rect x="60" y="642" width="100" height="160" style="fill:steelblue" />
<text x="170" y="652" >56</text>
<text x="220" y="652" >Ag.i interface{} (size 16, align 8)</text>
<text x="50" y="802" style="text-anchor:end" >71</text>
<rect x="60" y="810" width="100" height="20" style="fill:steelblue" />
<text x="170" y="820" >72</text>
<text x="220" y="820" >Ag.arr [2]int8 (size 2, align 1)</text>
<rect x="60" y="838" width="100" height="10" style="fill:steelblue" />
<text x="170" y="848" >74</text>
<text x="220" y="848" >Ag.bl bool (size 1, align 1)</text>
<rect x="60" y="856" width="100" height="50" style="fill:maroon" />
<text x="170" y="866" >75</text>
<text x="220" y="866" >padding (size 5, align 0)</text>
<text x="50" y="906" style="text-anchor:end" >79</text>
</g>
</svg>
